#!OML:ASF E:/inclinewalkrobotboard/Project1/Captureday1/Session1/subject1.ASF
:FULLY-SPECIFIED
:DEGREES
163
root 0 0 0 -1.6882040666872027 -6.093654338989438 -7.802768850486849
lowerback 8.55672013205598 2.8488870665167734 6.301314213472457
upperback -0.05333047640451615 4.4867910523676535 1.0825793583579393
thorax -4.715851453604403 2.0805107059255423 -2.9799383115860736
lowerneck -13.838487458929668 -3.223266051899148 -1.460540208338734
upperneck 12.740945231902964 -4.530175562709727 2.7454369047978284
head 6.140535903944888 -2.085408849136711 0.6900052008643036
rclavicle -4.637425336602551E-15 -6.418867566297124E-16
rhumerus -30.171656289556115 -17.539492435562003 -83.97425113590864
rradius 22.609342272654565
rwrist 16.059063699482973
rhand -19.60085169774314 30.7416518381914
rfingers 7.125019999999997
rthumb 6.7450481417479375 0.6259155308641908
lclavicle -5.5967433492725335E-15 -8.441628478364432E-16
lhumerus -35.11510120883865 8.56492432478213 80.11107517628251
lradius 15.750117077275252
lwrist -2.16995968129114
lhand -26.925097228140718 26.966445828171107
lfingers 7.125019999999983
lthumb -0.39714489927676144 57.002552835168586
rfemur -8.899016902920405 5.7089510162377985 29.549890774877277
rtibia 40.24032388312153
rfoot -9.701488612172959 -5.848898883687621
rtoes 5.807785689028632
lfemur -21.190647544369366 0.9942047056435479 -16.059887668429415
ltibia 40.12067637851764
lfoot -0.4916911541702742 -5.2873363538234734
ltoes -4.350172474436526
164
root 0 0 0 -1.7672882846287903 -6.1489177282552365 -7.653477271520366
lowerback 8.495598097406809 2.8974356186656145 6.163783577312888
upperback -0.04218935610178227 4.529493999033312 1.0441971240909582
thorax -4.666065774026643 2.108810052342828 -2.940803496623546
lowerneck -13.620211239229132 -3.268369361032664 -1.5404132962132568
upperneck 12.710688081217311 -4.6092345835040796 2.978655805640156
head 6.09876590146202 -2.1143253284773555 0.775830175183424
rclavicle -4.4008346789329995E-15 -9.385712071227608E-16
rhumerus -30.45322770985439 -17.235558851308284 -84.17753570142467
rradius 21.99295572691007
rwrist 15.61083355342111
rhand -19.40276908576268 30.805176582750093
rfingers 7.1250199999999975
rthumb 6.934535336233194 0.7088621793542771
lclavicle -5.406669068760215E-15 -9.665790697937848E-16
lhumerus -35.10034623533477 8.537105460831153 79.98050895806395
lradius 15.854381778181484
lwrist -2.0568481971738186
lhand -26.996639611118834 27.042023724838042
lfingers 7.125019999999984
lthumb -0.46618211309813873 57.087714428114865
rfemur -9.044053019164378 5.754626986670798 29.4449563583672
rtibia 39.56863294213531
rfoot -9.942295568355155 -5.961453097020503
rtoes 5.487204790842264
lfemur -20.882908911613345 0.8320412901254755 -16.195762277760267
ltibia 39.65039249186423
lfoot -0.823458733811254 -5.065986375081751
ltoes -4.3122638241961475
165
root 0 0 0 -1.8217701547909981 -6.164085640105747 -7.5330029944904435
lowerback 8.496386368332477 2.9354595039642657 6.034589852881791
upperback -0.030070375325209106 4.5622422824049575 1.0093816203564623
thorax -4.65166404094688 2.13064621587135 -2.9044512861503535
lowerneck -13.442194326944167 -3.3184691871347987 -1.593703526152538
upperneck 12.685755535828967 -4.693390809438008 3.158620493679604
head 6.067841108628916 -2.1470269431432496 0.8388691903526799
rclavicle -4.1265668637268314E-15 -1.1883681272006702E-15
rhumerus -30.639259372689136 -17.071766756816796 -84.27359781459957
rradius 21.49018161548767
rwrist 15.197566702006505
rhand -19.237186890175458 30.834791290806685
rfingers 7.1250199999999975
rthumb 7.092769261006714 0.7564530036833688
lclavicle -5.1725682127671015E-15 -1.0493110490671387E-15
lhumerus -35.09416547316976 8.501607487637516 79.84949026183774
lradius 15.978179910609335
lwrist -1.9317689691598567
lhand -27.065856935505263 27.11629085716211
lfingers 7.125019999999985
lthumb -0.5326702038424962 57.17159959312099
rfemur -9.272782127551181 5.743505223010983 29.259339270654543
rtibia 39.18402830389165
rfoot -9.996855510975148 -6.037773339295429
rtoes 5.2686937917286585
lfemur -20.47297674355066 0.6783632600512477 -16.398801424111664
ltibia 39.19770697292393
lfoot -1.126214348563284 -4.908257599289097
ltoes -4.115376073802434
166
root 0 0 0 -1.859579858640713 -6.155606402321297 -7.440721353239679
lowerback 8.535007420362335 2.9614064167246767 5.92161992413598
upperback -0.011722852533647965 4.583215364815657 0.9840463001556093
thorax -4.652857308134168 2.145280982669993 -2.8679351801725987
lowerneck -13.295446354731496 -3.366146364722934 -1.6266576703663
upperneck 12.681261653873825 -4.770631092738589 3.289123342492699
head 6.049379593708993 -2.178184737203175 0.8822573269672773
rclavicle -3.860273225640483E-15 -1.369197500962185E-15
rhumerus -30.729963255806275 -17.026364588700503 -84.27157011444295
rradius 21.141105851353785
rwrist 14.827337405305585
rhand -19.11540932131153 30.838332890139036
rfingers 7.125019999999998
rthumb 7.208887663568737 0.7742125892482932
lclavicle -4.939545359290863E-15 -1.1014541613588733E-15
lhumerus -35.08883306335685 8.454482081004606 79.74451756396567
lradius 16.10939543514871
lwrist -1.8078694566009088
lhand -27.123366534906445 27.179168283138473
lfingers 7.125019999999985
lthumb -0.5876345393957036 57.24250955625568
rfemur -9.576581698401887 5.691306745555404 29.044719068039015
rtibia 39.10049879221709
rfoot -9.904880546060749 -6.088771546236472
rtoes 5.156383000043825
lfemur -20.030576211626066 0.5344047090706816 -16.621846546732705
ltibia 38.788191920164245
lfoot -1.3916698458255148 -4.794354475679432
ltoes -3.8518922502043047
